# xmcd
#
# Track frame offsets:
#	150
#	12205
#	26554
#	42177
#	57966
#	71164
#	84403
#	97531
#	110539
#	122987
#	136994
#	149529
#	162540
#	176538
#	190696
#	203046
#	216771
#	228941
#	240751
#	253670
#
# Disc length: 3549 seconds
#
# Revision: 0
# Processed by: cddbd v1.5.2PL0 Copyright (c) Steve Scherf et al.
# Submitted via: audiograbber 1.82.02
#
DISCID=0d0ddb14
DTITLE=grupo pegasso - vol.4
DYEAR=1996
DGENRE=grupo
TTITLE0=quedate con el
TTITLE1=amor fingido
TTITLE2=nuestra decision
TTITLE3=el ronquidito
TTITLE4=morena de mi alma
TTITLE5=arrancame
TTITLE6=solo y sin ti
TTITLE7=al partir
TTITLE8=todo era mentira
TTITLE9=recordando un amor
TTITLE10=enamorado
TTITLE11=tu imagen
TTITLE12=amarte mas
TTITLE13=la chorreadita
TTITLE14=te lo voy a decir
TTITLE15=nueva ilusion
TTITLE16=tu maldad
TTITLE17=para olvidarme de ti
TTITLE18=oye
TTITLE19=no te perdono
EXTD=
EXTT0=
EXTT1=
EXTT2=
EXTT3=
EXTT4=
EXTT5=
EXTT6=
EXTT7=
EXTT8=
EXTT9=
EXTT10=
EXTT11=
EXTT12=
EXTT13=
EXTT14=
EXTT15=
EXTT16=
EXTT17=
EXTT18=
EXTT19=
PLAYORDER=
